<mxfile host="app.diagrams.net" modified="2024-07-16T16:24:31.191Z" agent="Mozilla/5.0 (Windows NT 10.0; Win64; x64) AppleWebKit/537.36 (KHTML, like Gecko) Chrome/126.0.0.0 Safari/537.36" etag="FTKkK4xcnpMp1BO0UDFJ" version="24.6.5" type="device">
  <diagram name="Page-1" id="XrbXIqW1gptE0XH8IbrC">
    <mxGraphModel dx="759" dy="307" grid="1" gridSize="10" guides="1" tooltips="1" connect="1" arrows="1" fold="1" page="1" pageScale="1" pageWidth="850" pageHeight="1100" math="0" shadow="0">
      <root>
        <mxCell id="0" />
        <mxCell id="1" parent="0" />
        <mxCell id="N-cFLn3UsdNvm5KqNZ8--30" value="" style="rounded=1;whiteSpace=wrap;html=1;fillColor=#12FFDF;strokeColor=#F7F7F7;" vertex="1" parent="1">
          <mxGeometry x="120" y="60" width="360" height="310" as="geometry" />
        </mxCell>
        <mxCell id="N-cFLn3UsdNvm5KqNZ8--2" value="&lt;font style=&quot;font-size: 8px;&quot;&gt;&lt;b style=&quot;&quot;&gt;Shrinkage(channel, gap_size)&lt;/b&gt;&lt;/font&gt;" style="text;html=1;align=center;verticalAlign=middle;whiteSpace=wrap;rounded=0;" vertex="1" parent="1">
          <mxGeometry x="220" y="61.66999999999999" width="150" height="40" as="geometry" />
        </mxCell>
        <mxCell id="N-cFLn3UsdNvm5KqNZ8--19" value="" style="edgeStyle=orthogonalEdgeStyle;rounded=0;orthogonalLoop=1;jettySize=auto;html=1;" edge="1" parent="1" source="N-cFLn3UsdNvm5KqNZ8--4" target="N-cFLn3UsdNvm5KqNZ8--6">
          <mxGeometry relative="1" as="geometry" />
        </mxCell>
        <mxCell id="N-cFLn3UsdNvm5KqNZ8--4" value="&lt;font style=&quot;font-size: 18px;&quot;&gt;&lt;b style=&quot;&quot;&gt;X&lt;/b&gt;&lt;/font&gt;" style="text;html=1;align=center;verticalAlign=middle;whiteSpace=wrap;rounded=0;" vertex="1" parent="1">
          <mxGeometry x="130" y="115.83000000000001" width="30" height="40" as="geometry" />
        </mxCell>
        <mxCell id="N-cFLn3UsdNvm5KqNZ8--20" value="" style="edgeStyle=orthogonalEdgeStyle;rounded=0;orthogonalLoop=1;jettySize=auto;html=1;" edge="1" parent="1" source="N-cFLn3UsdNvm5KqNZ8--6" target="N-cFLn3UsdNvm5KqNZ8--7">
          <mxGeometry relative="1" as="geometry" />
        </mxCell>
        <mxCell id="N-cFLn3UsdNvm5KqNZ8--6" value="&lt;font style=&quot;font-size: 6px;&quot;&gt;convert X to positive&lt;/font&gt;&lt;div&gt;&lt;font style=&quot;font-size: 6px;&quot;&gt;torch.abs(X)&lt;/font&gt;&lt;/div&gt;" style="ellipse;whiteSpace=wrap;html=1;movable=1;resizable=1;rotatable=1;deletable=1;editable=1;locked=0;connectable=1;" vertex="1" parent="1">
          <mxGeometry x="180" y="101.66999999999999" width="72.5" height="68.33" as="geometry" />
        </mxCell>
        <mxCell id="N-cFLn3UsdNvm5KqNZ8--22" value="" style="edgeStyle=orthogonalEdgeStyle;rounded=0;orthogonalLoop=1;jettySize=auto;html=1;" edge="1" parent="1" source="N-cFLn3UsdNvm5KqNZ8--7" target="N-cFLn3UsdNvm5KqNZ8--11">
          <mxGeometry relative="1" as="geometry" />
        </mxCell>
        <mxCell id="N-cFLn3UsdNvm5KqNZ8--7" value="&lt;span style=&quot;font-size: 6px;&quot;&gt;2D Average Pool&lt;/span&gt;&lt;div&gt;&lt;span style=&quot;font-size: 6px;&quot;&gt;size = gap_size&lt;/span&gt;&lt;/div&gt;" style="ellipse;whiteSpace=wrap;html=1;fillColor=#FF6F1C;" vertex="1" parent="1">
          <mxGeometry x="280" y="101.66999999999999" width="72.5" height="68.33" as="geometry" />
        </mxCell>
        <mxCell id="N-cFLn3UsdNvm5KqNZ8--24" value="" style="edgeStyle=orthogonalEdgeStyle;rounded=0;orthogonalLoop=1;jettySize=auto;html=1;" edge="1" parent="1" source="N-cFLn3UsdNvm5KqNZ8--10" target="N-cFLn3UsdNvm5KqNZ8--12">
          <mxGeometry relative="1" as="geometry" />
        </mxCell>
        <mxCell id="N-cFLn3UsdNvm5KqNZ8--10" value="&lt;span style=&quot;font-size: 6px;&quot;&gt;Linear Transformation&lt;/span&gt;&lt;div&gt;&lt;span style=&quot;font-size: 6px;&quot;&gt;input = output size = channel&lt;/span&gt;&lt;/div&gt;" style="ellipse;whiteSpace=wrap;html=1;fillColor=#FF6F1C;" vertex="1" parent="1">
          <mxGeometry x="379" y="190" width="72.5" height="68.33" as="geometry" />
        </mxCell>
        <mxCell id="N-cFLn3UsdNvm5KqNZ8--23" value="" style="edgeStyle=orthogonalEdgeStyle;rounded=0;orthogonalLoop=1;jettySize=auto;html=1;" edge="1" parent="1" source="N-cFLn3UsdNvm5KqNZ8--11" target="N-cFLn3UsdNvm5KqNZ8--10">
          <mxGeometry relative="1" as="geometry" />
        </mxCell>
        <mxCell id="N-cFLn3UsdNvm5KqNZ8--11" value="&lt;span style=&quot;font-size: 6px;&quot;&gt;flattening X&lt;/span&gt;&lt;div&gt;&lt;span style=&quot;font-size: 6px;&quot;&gt;start_dim = 1&lt;/span&gt;&lt;/div&gt;" style="ellipse;whiteSpace=wrap;html=1;" vertex="1" parent="1">
          <mxGeometry x="380" y="101.66999999999999" width="72.5" height="68.33" as="geometry" />
        </mxCell>
        <mxCell id="N-cFLn3UsdNvm5KqNZ8--25" value="" style="edgeStyle=orthogonalEdgeStyle;rounded=0;orthogonalLoop=1;jettySize=auto;html=1;" edge="1" parent="1" source="N-cFLn3UsdNvm5KqNZ8--12" target="N-cFLn3UsdNvm5KqNZ8--14">
          <mxGeometry relative="1" as="geometry" />
        </mxCell>
        <mxCell id="N-cFLn3UsdNvm5KqNZ8--12" value="&lt;span style=&quot;font-size: 6px;&quot;&gt;1D Batch Normalization&lt;/span&gt;&lt;div&gt;&lt;span style=&quot;font-size: 6px;&quot;&gt;batch size = channel&lt;/span&gt;&lt;/div&gt;" style="ellipse;whiteSpace=wrap;html=1;fillColor=#FF6F1C;" vertex="1" parent="1">
          <mxGeometry x="280" y="190" width="72.5" height="68.33" as="geometry" />
        </mxCell>
        <mxCell id="N-cFLn3UsdNvm5KqNZ8--26" value="" style="edgeStyle=orthogonalEdgeStyle;rounded=0;orthogonalLoop=1;jettySize=auto;html=1;" edge="1" parent="1" source="N-cFLn3UsdNvm5KqNZ8--14" target="N-cFLn3UsdNvm5KqNZ8--16">
          <mxGeometry relative="1" as="geometry" />
        </mxCell>
        <mxCell id="N-cFLn3UsdNvm5KqNZ8--14" value="&lt;span style=&quot;font-size: 6px;&quot;&gt;ReLU&lt;/span&gt;" style="ellipse;whiteSpace=wrap;html=1;fillColor=#FF6F1C;" vertex="1" parent="1">
          <mxGeometry x="180" y="190" width="72.5" height="68.33" as="geometry" />
        </mxCell>
        <mxCell id="N-cFLn3UsdNvm5KqNZ8--29" value="" style="edgeStyle=orthogonalEdgeStyle;rounded=0;orthogonalLoop=1;jettySize=auto;html=1;" edge="1" parent="1" source="N-cFLn3UsdNvm5KqNZ8--15" target="N-cFLn3UsdNvm5KqNZ8--28">
          <mxGeometry relative="1" as="geometry" />
        </mxCell>
        <mxCell id="N-cFLn3UsdNvm5KqNZ8--15" value="&lt;span style=&quot;font-size: 6px;&quot;&gt;Sigmoid&lt;/span&gt;" style="ellipse;whiteSpace=wrap;html=1;fillColor=#FF6F1C;" vertex="1" parent="1">
          <mxGeometry x="280" y="280" width="72.5" height="68.33" as="geometry" />
        </mxCell>
        <mxCell id="N-cFLn3UsdNvm5KqNZ8--27" value="" style="edgeStyle=orthogonalEdgeStyle;rounded=0;orthogonalLoop=1;jettySize=auto;html=1;" edge="1" parent="1" source="N-cFLn3UsdNvm5KqNZ8--16" target="N-cFLn3UsdNvm5KqNZ8--15">
          <mxGeometry relative="1" as="geometry" />
        </mxCell>
        <mxCell id="N-cFLn3UsdNvm5KqNZ8--16" value="&lt;span style=&quot;font-size: 6px;&quot;&gt;Linear Transformation&lt;/span&gt;&lt;div&gt;&lt;span style=&quot;font-size: 6px;&quot;&gt;input = output size = channel&lt;/span&gt;&lt;/div&gt;" style="ellipse;whiteSpace=wrap;html=1;fillColor=#FF6F1C;" vertex="1" parent="1">
          <mxGeometry x="180" y="280" width="72.5" height="68.33" as="geometry" />
        </mxCell>
        <mxCell id="N-cFLn3UsdNvm5KqNZ8--28" value="&lt;span style=&quot;font-size: 6px;&quot;&gt;Soft Thresholding&lt;/span&gt;&lt;div&gt;&lt;span style=&quot;font-size: 6px;&quot;&gt;???&lt;/span&gt;&lt;/div&gt;" style="ellipse;whiteSpace=wrap;html=1;fillColor=#F19C99;" vertex="1" parent="1">
          <mxGeometry x="380" y="280" width="72.5" height="68.33" as="geometry" />
        </mxCell>
        <mxCell id="N-cFLn3UsdNvm5KqNZ8--31" value="" style="rounded=1;whiteSpace=wrap;html=1;fillColor=#39FF08;strokeColor=#F7F7F7;" vertex="1" parent="1">
          <mxGeometry x="120" y="395" width="360" height="310" as="geometry" />
        </mxCell>
        <mxCell id="N-cFLn3UsdNvm5KqNZ8--32" value="&lt;font style=&quot;font-size: 8px;&quot;&gt;&lt;b style=&quot;&quot;&gt;BasicBlock(in_channels, out_channels, strides)&lt;/b&gt;&lt;/font&gt;" style="text;html=1;align=center;verticalAlign=middle;whiteSpace=wrap;rounded=0;" vertex="1" parent="1">
          <mxGeometry x="207.5" y="396.66999999999996" width="185" height="40" as="geometry" />
        </mxCell>
        <mxCell id="N-cFLn3UsdNvm5KqNZ8--33" value="" style="edgeStyle=orthogonalEdgeStyle;rounded=0;orthogonalLoop=1;jettySize=auto;html=1;" edge="1" source="N-cFLn3UsdNvm5KqNZ8--34" target="N-cFLn3UsdNvm5KqNZ8--36" parent="1">
          <mxGeometry relative="1" as="geometry" />
        </mxCell>
        <mxCell id="N-cFLn3UsdNvm5KqNZ8--34" value="&lt;font style=&quot;font-size: 18px;&quot;&gt;&lt;b style=&quot;&quot;&gt;X&lt;/b&gt;&lt;/font&gt;" style="text;html=1;align=center;verticalAlign=middle;whiteSpace=wrap;rounded=0;" vertex="1" parent="1">
          <mxGeometry x="130" y="450.83000000000004" width="30" height="40" as="geometry" />
        </mxCell>
        <mxCell id="N-cFLn3UsdNvm5KqNZ8--35" value="" style="edgeStyle=orthogonalEdgeStyle;rounded=0;orthogonalLoop=1;jettySize=auto;html=1;" edge="1" source="N-cFLn3UsdNvm5KqNZ8--36" target="N-cFLn3UsdNvm5KqNZ8--38" parent="1">
          <mxGeometry relative="1" as="geometry" />
        </mxCell>
        <mxCell id="N-cFLn3UsdNvm5KqNZ8--36" value="&lt;span style=&quot;font-size: 6px;&quot;&gt;Conv2D&amp;nbsp;&lt;/span&gt;" style="ellipse;whiteSpace=wrap;html=1;movable=1;resizable=1;rotatable=1;deletable=1;editable=1;locked=0;connectable=1;fillColor=#FF6F1C;" vertex="1" parent="1">
          <mxGeometry x="180" y="436.66999999999996" width="72.5" height="68.33" as="geometry" />
        </mxCell>
        <mxCell id="N-cFLn3UsdNvm5KqNZ8--37" value="" style="edgeStyle=orthogonalEdgeStyle;rounded=0;orthogonalLoop=1;jettySize=auto;html=1;" edge="1" source="N-cFLn3UsdNvm5KqNZ8--38" target="N-cFLn3UsdNvm5KqNZ8--42" parent="1">
          <mxGeometry relative="1" as="geometry" />
        </mxCell>
        <mxCell id="N-cFLn3UsdNvm5KqNZ8--38" value="&lt;span style=&quot;font-size: 6px;&quot;&gt;2D Batch Normalization&lt;/span&gt;" style="ellipse;whiteSpace=wrap;html=1;fillColor=#FF6F1C;" vertex="1" parent="1">
          <mxGeometry x="280" y="436.66999999999996" width="72.5" height="68.33" as="geometry" />
        </mxCell>
        <mxCell id="N-cFLn3UsdNvm5KqNZ8--39" value="" style="edgeStyle=orthogonalEdgeStyle;rounded=0;orthogonalLoop=1;jettySize=auto;html=1;" edge="1" source="N-cFLn3UsdNvm5KqNZ8--40" target="N-cFLn3UsdNvm5KqNZ8--44" parent="1">
          <mxGeometry relative="1" as="geometry" />
        </mxCell>
        <mxCell id="N-cFLn3UsdNvm5KqNZ8--40" value="&lt;span style=&quot;font-size: 6px;&quot;&gt;Conv2D&lt;/span&gt;" style="ellipse;whiteSpace=wrap;html=1;fillColor=#FF6F1C;" vertex="1" parent="1">
          <mxGeometry x="379" y="525" width="72.5" height="68.33" as="geometry" />
        </mxCell>
        <mxCell id="N-cFLn3UsdNvm5KqNZ8--41" value="" style="edgeStyle=orthogonalEdgeStyle;rounded=0;orthogonalLoop=1;jettySize=auto;html=1;" edge="1" source="N-cFLn3UsdNvm5KqNZ8--42" target="N-cFLn3UsdNvm5KqNZ8--40" parent="1">
          <mxGeometry relative="1" as="geometry" />
        </mxCell>
        <mxCell id="N-cFLn3UsdNvm5KqNZ8--42" value="&lt;span style=&quot;font-size: 6px;&quot;&gt;ReLU&lt;/span&gt;" style="ellipse;whiteSpace=wrap;html=1;fillColor=#FF6F1C;" vertex="1" parent="1">
          <mxGeometry x="380" y="436.66999999999996" width="72.5" height="68.33" as="geometry" />
        </mxCell>
        <mxCell id="N-cFLn3UsdNvm5KqNZ8--43" value="" style="edgeStyle=orthogonalEdgeStyle;rounded=0;orthogonalLoop=1;jettySize=auto;html=1;" edge="1" source="N-cFLn3UsdNvm5KqNZ8--44" target="N-cFLn3UsdNvm5KqNZ8--52" parent="1">
          <mxGeometry relative="1" as="geometry">
            <mxPoint x="252.4999980681897" y="559.1538461538462" as="targetPoint" />
          </mxGeometry>
        </mxCell>
        <mxCell id="N-cFLn3UsdNvm5KqNZ8--44" value="&lt;span style=&quot;font-size: 6px;&quot;&gt;2D Batch Normalization&lt;/span&gt;" style="ellipse;whiteSpace=wrap;html=1;fillColor=#FF6F1C;" vertex="1" parent="1">
          <mxGeometry x="280" y="525" width="72.5" height="68.33" as="geometry" />
        </mxCell>
        <mxCell id="N-cFLn3UsdNvm5KqNZ8--45" value="" style="edgeStyle=orthogonalEdgeStyle;rounded=0;orthogonalLoop=1;jettySize=auto;html=1;exitX=0.5;exitY=1;exitDx=0;exitDy=0;" edge="1" source="N-cFLn3UsdNvm5KqNZ8--52" target="N-cFLn3UsdNvm5KqNZ8--50" parent="1">
          <mxGeometry relative="1" as="geometry">
            <mxPoint x="216.25" y="593.33" as="sourcePoint" />
          </mxGeometry>
        </mxCell>
        <mxCell id="N-cFLn3UsdNvm5KqNZ8--50" value="&lt;span style=&quot;font-size: 6px;&quot;&gt;ReLU&lt;/span&gt;&lt;div&gt;&lt;span style=&quot;font-size: 6px;&quot;&gt;X_output + X&lt;/span&gt;&lt;/div&gt;" style="ellipse;whiteSpace=wrap;html=1;fillColor=#FF6F1C;" vertex="1" parent="1">
          <mxGeometry x="180" y="615" width="72.5" height="68.33" as="geometry" />
        </mxCell>
        <mxCell id="N-cFLn3UsdNvm5KqNZ8--52" value="&lt;font style=&quot;font-size: 6px;&quot;&gt;Shrinkage&lt;/font&gt;&lt;div&gt;&lt;font style=&quot;font-size: 6px;&quot;&gt;channel = out _channels&lt;/font&gt;&lt;/div&gt;&lt;div&gt;&lt;font style=&quot;font-size: 6px;&quot;&gt;gap_size = (1,1)&lt;/font&gt;&lt;/div&gt;" style="rounded=1;whiteSpace=wrap;html=1;fillColor=#12FFDF;" vertex="1" parent="1">
          <mxGeometry x="176.25" y="525" width="80" height="70" as="geometry" />
        </mxCell>
        <mxCell id="N-cFLn3UsdNvm5KqNZ8--53" value="Note: Need another Conv2D with kernel_size=1 if X dimension is not same as the dimension" style="text;html=1;align=center;verticalAlign=middle;whiteSpace=wrap;rounded=0;" vertex="1" parent="1">
          <mxGeometry x="272.5" y="634.17" width="180" height="30" as="geometry" />
        </mxCell>
        <mxCell id="N-cFLn3UsdNvm5KqNZ8--54" value="" style="rounded=1;whiteSpace=wrap;html=1;fillColor=#12FFDF;strokeColor=#F7F7F7;" vertex="1" parent="1">
          <mxGeometry x="120" y="720" width="360" height="310" as="geometry" />
        </mxCell>
        <mxCell id="N-cFLn3UsdNvm5KqNZ8--55" value="&lt;font style=&quot;font-size: 8px;&quot;&gt;&lt;b style=&quot;&quot;&gt;RSNet(block = BasicBlock, num_block = [3,4,6,3], num_classes=4)&lt;/b&gt;&lt;/font&gt;" style="text;html=1;align=center;verticalAlign=middle;whiteSpace=wrap;rounded=0;" vertex="1" parent="1">
          <mxGeometry x="165" y="721.67" width="270" height="40" as="geometry" />
        </mxCell>
        <mxCell id="N-cFLn3UsdNvm5KqNZ8--56" value="" style="edgeStyle=orthogonalEdgeStyle;rounded=0;orthogonalLoop=1;jettySize=auto;html=1;" edge="1" source="N-cFLn3UsdNvm5KqNZ8--57" target="N-cFLn3UsdNvm5KqNZ8--59" parent="1">
          <mxGeometry relative="1" as="geometry" />
        </mxCell>
        <mxCell id="N-cFLn3UsdNvm5KqNZ8--57" value="&lt;font style=&quot;font-size: 18px;&quot;&gt;&lt;b style=&quot;&quot;&gt;X&lt;/b&gt;&lt;/font&gt;" style="text;html=1;align=center;verticalAlign=middle;whiteSpace=wrap;rounded=0;" vertex="1" parent="1">
          <mxGeometry x="130" y="775.83" width="30" height="40" as="geometry" />
        </mxCell>
        <mxCell id="N-cFLn3UsdNvm5KqNZ8--58" value="" style="edgeStyle=orthogonalEdgeStyle;rounded=0;orthogonalLoop=1;jettySize=auto;html=1;" edge="1" source="N-cFLn3UsdNvm5KqNZ8--59" target="N-cFLn3UsdNvm5KqNZ8--61" parent="1">
          <mxGeometry relative="1" as="geometry" />
        </mxCell>
        <mxCell id="N-cFLn3UsdNvm5KqNZ8--59" value="&lt;span style=&quot;font-size: 6px;&quot;&gt;Conv2D&lt;/span&gt;" style="ellipse;whiteSpace=wrap;html=1;movable=1;resizable=1;rotatable=1;deletable=1;editable=1;locked=0;connectable=1;fillColor=#FF6F1C;" vertex="1" parent="1">
          <mxGeometry x="180" y="761.67" width="72.5" height="68.33" as="geometry" />
        </mxCell>
        <mxCell id="N-cFLn3UsdNvm5KqNZ8--60" value="" style="edgeStyle=orthogonalEdgeStyle;rounded=0;orthogonalLoop=1;jettySize=auto;html=1;" edge="1" source="N-cFLn3UsdNvm5KqNZ8--61" target="N-cFLn3UsdNvm5KqNZ8--65" parent="1">
          <mxGeometry relative="1" as="geometry" />
        </mxCell>
        <mxCell id="N-cFLn3UsdNvm5KqNZ8--61" value="&lt;div&gt;&lt;span style=&quot;font-size: 6px;&quot;&gt;2D Batch Normalization&lt;/span&gt;&lt;/div&gt;" style="ellipse;whiteSpace=wrap;html=1;fillColor=#FF6F1C;" vertex="1" parent="1">
          <mxGeometry x="280" y="761.67" width="72.5" height="68.33" as="geometry" />
        </mxCell>
        <mxCell id="N-cFLn3UsdNvm5KqNZ8--65" value="&lt;span style=&quot;font-size: 6px;&quot;&gt;ReLU&lt;/span&gt;" style="ellipse;whiteSpace=wrap;html=1;fillColor=#FF6F1C;" vertex="1" parent="1">
          <mxGeometry x="380" y="761.67" width="72.5" height="68.33" as="geometry" />
        </mxCell>
        <mxCell id="N-cFLn3UsdNvm5KqNZ8--76" value="Graph is under construction..." style="text;html=1;align=center;verticalAlign=middle;whiteSpace=wrap;rounded=0;" vertex="1" parent="1">
          <mxGeometry x="235" y="910" width="130" height="30" as="geometry" />
        </mxCell>
      </root>
    </mxGraphModel>
  </diagram>
</mxfile>
